<svg xmlns="http://www.w3.org/2000/svg" viewBox="0 0 1200 320" role="img" aria-label="Fluxo CERN: colisões, detectores, sinais, trigger e dados armazenados">
  <defs>
    <linearGradient id="cyan" x1="0" x2="1"><stop offset="0" stop-color="#22d3ee"/><stop offset="1" stop-color="#38bdf8"/></linearGradient>
    <linearGradient id="orange" x1="0" x2="1"><stop offset="0" stop-color="#ff7a18"/><stop offset="1" stop-color="#f97316"/></linearGradient>
    <filter id="glow"><feGaussianBlur stdDeviation="3" result="b"/><feMerge><feMergeNode in="b"/><feMergeNode in="SourceGraphic"/></feMerge></filter>
    <marker id="arrow" markerWidth="12" markerHeight="12" refX="10" refY="6" orient="auto"><path d="M2,2 L10,6 L2,10" fill="none" stroke="#22d3ee" stroke-width="2"/></marker>
  </defs>
  <rect width="1200" height="320" rx="28" fill="#06111f" opacity=".95"/>
  <g fill="none" stroke="#22d3ee" stroke-width="3" marker-end="url(#arrow)" opacity=".95">
    <path d="M185 165H315"/><path d="M445 165H575"/><path d="M705 165H835"/><path d="M965 165H1095"/>
  </g>
  <g font-family="Inter,Segoe UI,Arial,sans-serif" font-weight="800" font-size="28" fill="#e5f7ff" text-anchor="middle">
    <text x="120" y="58">Colisões</text><text x="120" y="90">no LHC</text>
    <text x="380" y="74">Detectores</text>
    <text x="640" y="58">Sinais</text><text x="640" y="90">eletrônicos</text>
    <text x="900" y="58">Trigger</text><text x="900" y="90">filtros</text>
    <text x="1130" y="58">Dados</text><text x="1130" y="90">armazenados</text>
  </g>
  <g filter="url(#glow)">
    <circle cx="120" cy="165" r="12" fill="#fff7ed"/><g stroke="url(#cyan)" stroke-width="2" opacity=".9">
      <path d="M120 165 L55 115"/><path d="M120 165 L52 194"/><path d="M120 165 L160 105"/><path d="M120 165 L188 190"/><path d="M120 165 L105 90"/><path d="M120 165 L135 238"/>
      <circle cx="55" cy="115" r="4" fill="#22d3ee"/><circle cx="52" cy="194" r="4" fill="#22d3ee"/><circle cx="160" cy="105" r="4" fill="#22d3ee"/><circle cx="188" cy="190" r="4" fill="#22d3ee"/>
    </g><g stroke="#f97316" stroke-width="2" opacity=".9"><path d="M120 165 L70 145"/><path d="M120 165 L175 145"/><path d="M120 165 L115 215"/></g>
    <g transform="translate(350 122)"><ellipse cx="30" cy="43" rx="62" ry="43" fill="none" stroke="#22d3ee" stroke-width="4"/><path d="M30 0v86" stroke="#22d3ee" stroke-width="4"/><ellipse cx="30" cy="43" rx="34" ry="43" fill="none" stroke="#38bdf8" stroke-width="2"/><rect x="-25" y="5" width="110" height="76" rx="12" fill="none" stroke="#94a3b8" opacity=".5"/></g>
    <g stroke="#22d3ee" stroke-width="5" fill="none" transform="translate(595 120)"><path d="M0 20c35-35 75 35 110 0"/><path d="M0 60c35-35 75 35 110 0"/><path d="M0 100c35-35 75 35 110 0"/></g>
    <g transform="translate(855 113)"><path d="M0 0h90l-35 53v46l-20 10V53z" fill="none" stroke="#f97316" stroke-width="5"/><circle cx="18" cy="-14" r="5" fill="#f97316"/><circle cx="46" cy="-20" r="4" fill="#fb923c"/><circle cx="68" cy="-8" r="5" fill="#f97316"/><circle cx="34" cy="120" r="5" fill="#f97316"/><circle cx="58" cy="118" r="4" fill="#fb923c"/></g>
    <g transform="translate(1082 118)"><ellipse cx="52" cy="20" rx="52" ry="20" fill="none" stroke="#22d3ee" stroke-width="4"/><path d="M0 20v90c0 11 23 20 52 20s52-9 52-20V20" fill="none" stroke="#22d3ee" stroke-width="4"/><path d="M0 65c0 11 23 20 52 20s52-9 52-20" fill="none" stroke="#38bdf8" stroke-width="2"/></g>
  </g>
</svg>
